<?xml version="1.0" encoding="UTF-8" standalone="no"?>
<!-- Created with Inkscape (http://www.inkscape.org/) -->

<svg
   xmlns:dc="http://purl.org/dc/elements/1.1/"
   xmlns:cc="http://creativecommons.org/ns#"
   xmlns:rdf="http://www.w3.org/1999/02/22-rdf-syntax-ns#"
   xmlns:svg="http://www.w3.org/2000/svg"
   xmlns="http://www.w3.org/2000/svg"
   xmlns:sodipodi="http://sodipodi.sourceforge.net/DTD/sodipodi-0.dtd"
   xmlns:inkscape="http://www.inkscape.org/namespaces/inkscape"
   width="1920.2983"
   height="573.50818"
   id="svg2"
   version="1.1"
   inkscape:version="0.48.2 r9819"
   sodipodi:docname="abonbutono-dika_inversa.svg">
  <defs
     id="defs4">
    <clipPath
       clipPathUnits="userSpaceOnUse"
       id="clipPath3006">
      <rect
         style="color:#000000;fill:#ffffff;fill-opacity:0.36866359;fill-rule:nonzero;stroke:none;stroke-width:1;marker:none;visibility:visible;display:inline;overflow:visible;enable-background:accumulate"
         id="rect3008"
         width="47.857143"
         height="47.857143"
         x="527.14288"
         y="835.57648"
         rx="0.1739222" />
    </clipPath>
  </defs>
  <sodipodi:namedview
     id="base"
     pagecolor="#bcffff"
     bordercolor="#666666"
     borderopacity="1.0"
     inkscape:pageopacity="0.65882353"
     inkscape:pageshadow="2"
     inkscape:zoom="0.57"
     inkscape:cx="1086.5028"
     inkscape:cy="177.32289"
     inkscape:document-units="px"
     inkscape:current-layer="layer1"
     showgrid="false"
     inkscape:snap-bbox="true"
     inkscape:window-width="1600"
     inkscape:window-height="848"
     inkscape:window-x="-8"
     inkscape:window-y="-8"
     inkscape:window-maximized="1"
     showguides="true"
     inkscape:guide-bbox="true"
     inkscape:snap-nodes="true"
     inkscape:object-nodes="true"
     inkscape:snap-global="true"
     inkscape:bbox-nodes="true"
     inkscape:snap-smooth-nodes="true"
     inkscape:snap-to-guides="true"
     inkscape:snap-grids="false"
     fit-margin-top="0"
     fit-margin-left="0"
     fit-margin-right="0"
     fit-margin-bottom="0" />
  <metadata
     id="metadata7">
    <rdf:RDF>
      <cc:Work
         rdf:about="">
        <dc:format>image/svg+xml</dc:format>
        <dc:type
           rdf:resource="http://purl.org/dc/dcmitype/StillImage" />
        <dc:title></dc:title>
      </cc:Work>
    </rdf:RDF>
  </metadata>
  <g
     inkscape:label="Vrstva 1"
     inkscape:groupmode="layer"
     id="layer1"
     transform="translate(588.10193,-398.65225)">
    <path
       style="opacity:1;color:#000000;fill:#ffffff;fill-opacity:1;fill-rule:nonzero;stroke:none;stroke-width:1.01942170000000010;stroke-linecap:round;stroke-linejoin:round;stroke-miterlimit:4;stroke-opacity:1;stroke-dasharray:none;stroke-dashoffset:0;marker:none;visibility:visible;display:inline;overflow:visible;enable-background:accumulate"
       d="M 0.6875 0.5 C 0.59114808 0.5 0.5 0.59114808 0.5 0.6875 L 0.5 572.8125 C 0.5 572.90885 0.59114808 573 0.6875 573 L 1919.625 573 C 1919.7214 573 1919.7812 572.90885 1919.7812 572.8125 L 1919.7812 0.6875 C 1919.7812 0.59114808 1919.7214 0.5 1919.625 0.5 L 0.6875 0.5 z M 324.34375 92.5 C 405.05355 92.5 470.46875 157.9152 470.46875 238.625 C 470.46875 284.7684 449.09052 325.90457 415.6875 352.6875 C 415.6651 352.7055 415.6474 352.7321 415.625 352.75 C 413.22922 354.6794 410.17518 356.31565 407.125 356.40625 C 400.45121 356.40625 395.0625 350.72623 395.0625 343.71875 C 395.14551 338.25737 398.2311 334.32307 403.375 330.5 C 429.18989 308.27711 445.53125 275.36248 445.53125 238.625 C 445.53125 171.69491 391.27384 117.4375 324.34375 117.4375 C 257.41367 117.4375 203.15625 171.69491 203.15625 238.625 C 203.15625 275.36248 219.49761 308.27711 245.3125 330.5 C 245.3013 330.5298 245.29245 330.56395 245.28125 330.59375 C 250.18673 334.94954 252.24764 338.92382 252.0625 343.3125 C 251.75502 350.60136 246.66284 355.66466 238.84375 354.46875 C 234.11515 353.74552 230.85834 350.71325 227.15625 347.71875 C 197.13693 320.95181 178.1875 282.00583 178.1875 238.625 C 178.1875 157.9152 243.63396 92.5 324.34375 92.5 z M 915.6875 116.6875 L 972.46875 116.6875 L 972.46875 243.84375 L 973.28125 243.84375 C 989.79581 221.96204 1011.4761 211.03148 1038.3125 211.03125 C 1069.6902 211.03148 1093.2982 222.38631 1109.125 245.09375 C 1122.887 264.91151 1129.7498 291.34583 1129.75 324.375 C 1129.7498 357.26677 1122.887 383.75097 1109.125 403.84375 C 1093.1606 427.23952 1069.5525 438.9375 1038.3125 438.9375 C 1008.8612 438.9375 986.62571 428.31881 971.625 407.125 L 970.8125 407.125 L 970.8125 433.78125 L 915.6875 433.78125 L 915.6875 116.6875 z M 1692.2812 122.25 L 1749.0625 122.25 L 1749.0625 176.34375 L 1692.2812 176.34375 L 1692.2812 122.25 z M 699.75 138.5625 L 766.625 138.5625 L 882.4375 433.78125 L 817 433.78125 L 791.625 366.0625 L 671.875 366.0625 L 646.09375 433.78125 L 584.78125 433.78125 L 699.75 138.5625 z M 324.34375 142.0625 C 377.68287 142.0625 420.9375 185.28589 420.9375 238.625 C 420.9375 266.12138 409.41502 290.93973 390.96875 308.53125 C 389.03041 310.32993 386.0172 311.40477 382.6875 311.6875 C 376.09713 311.6875 370.75 306.22596 370.75 299.46875 C 370.75 295.18168 372.78043 292.12703 376.15625 289.21875 C 376.16625 289.20865 376.1775 289.1977 376.1875 289.1875 C 388.94008 276.13872 396.78125 258.31406 396.78125 238.625 C 396.78125 198.62106 364.34769 166.1875 324.34375 166.1875 C 284.33981 166.1875 251.9375 198.62106 251.9375 238.625 C 251.9375 258.63437 260.04012 276.71248 273.15625 289.8125 C 276.01054 292.72349 278.14725 295.61359 278.15625 299.59375 C 278.17114 306.35094 272.61144 312.22169 265.78125 311.84375 C 261.47038 311.60521 257.86204 308.80121 255.25 306.03125 C 238.28182 288.62527 227.78125 264.85294 227.78125 238.625 C 227.78125 185.28589 271.00464 142.0625 324.34375 142.0625 z M 324.34375 190.5625 C 350.8983 190.5625 372.4375 212.07045 372.4375 238.625 C 372.4375 265.17955 350.8983 286.71875 324.34375 286.71875 C 297.7892 286.71875 276.28125 265.17955 276.28125 238.625 C 276.28125 212.07045 297.7892 190.5625 324.34375 190.5625 z M 731.53125 197.8125 L 688.8125 319.625 L 775.09375 319.625 L 732.375 197.8125 L 731.53125 197.8125 z M 1274.0625 211.03125 C 1307.0917 211.03148 1334.181 221.27576 1355.375 241.78125 C 1377.2567 262.97523 1388.2179 291.20637 1388.2188 326.4375 C 1388.2179 358.77877 1378.1551 385.31286 1358.0625 406.09375 C 1337.1437 427.97568 1309.156 438.9375 1274.0625 438.9375 C 1239.1064 438.9375 1211.1685 427.97568 1190.25 406.09375 C 1170.2948 385.31286 1160.3125 358.77877 1160.3125 326.4375 C 1160.3125 291.20637 1171.1932 262.97523 1192.9375 241.78125 C 1213.9936 221.27576 1241.0331 211.03148 1274.0625 211.03125 z M 1558.7188 211.03125 C 1583.3524 211.03148 1602.1566 219.08592 1615.0938 235.1875 C 1626.7908 250.05087 1632.6248 270.40845 1632.625 296.28125 L 1632.625 433.78125 L 1576.0625 433.78125 L 1576.0625 317.5625 C 1576.0623 298.43316 1574.4776 284.6451 1571.3125 276.25 C 1565.9451 262.07509 1555.2266 255.00017 1539.125 255 C 1520.9588 255.00017 1507.5133 263.52878 1498.8438 280.59375 C 1492.5125 293.25513 1489.3749 308.80876 1489.375 327.25 L 1489.375 433.78125 L 1432.5938 433.78125 L 1432.5938 215.96875 L 1486.2812 215.96875 L 1486.2812 245.71875 L 1487.3125 245.71875 C 1503.6894 222.59844 1527.4779 211.03148 1558.7188 211.03125 z M 1692.2812 215.96875 L 1749.0625 215.96875 L 1749.0625 433.78125 L 1692.2812 433.78125 L 1692.2812 215.96875 z M 1023.6562 255 C 1006.8664 255.00017 993.84558 262.71149 984.625 278.125 C 976.78045 291.19924 972.87491 306.62188 972.875 324.375 C 972.87491 342.67884 976.43731 358.28235 983.59375 371.21875 C 992.53909 387.04534 1005.5597 394.96879 1022.625 394.96875 C 1039.5524 394.96879 1052.1979 386.91433 1060.5938 370.8125 C 1067.1987 358.15133 1070.4998 342.67884 1070.5 324.375 C 1070.4998 306.34663 1067.2806 291.13614 1060.8125 278.75 C 1052.555 262.92363 1040.1707 255.00017 1023.6562 255 z M 1274.0625 255 C 1256.722 255.00017 1243.0145 261.68207 1232.9688 275.03125 C 1223.885 287.14214 1219.3431 302.0095 1219.3438 319.625 C 1219.3431 369.85714 1237.5925 394.96879 1274.0625 394.96875 C 1310.6698 394.96879 1328.968 369.85714 1328.9688 319.625 C 1328.968 301.59663 1324.4262 286.64816 1315.3438 274.8125 C 1305.4342 261.60095 1291.678 255.00017 1274.0625 255 z M 324.34375 312.3125 C 350.89829 312.3125 372.4375 333.85171 372.4375 360.40625 C 372.4375 360.45744 372.43766 360.5114 372.4375 360.5625 L 372.4375 433.28125 C 372.43774 433.34263 372.4375 433.376 372.4375 433.4375 C 372.4375 459.99204 350.89829 481.53125 324.34375 481.53125 C 297.78921 481.53125 276.28125 459.99204 276.28125 433.4375 C 276.28125 433.38631 276.2811 433.3636 276.28125 433.3125 C 276.27925 433.3018 276.28125 433.29225 276.28125 433.28125 L 276.28125 360.5625 C 276.2811 360.51134 276.28125 360.45735 276.28125 360.40625 C 276.28125 333.85171 297.78921 312.3125 324.34375 312.3125 z "
       transform="translate(-588.10193,398.65225)"
       id="rect3081" />
  </g>
</svg>
