<?xml version="1.0" encoding="UTF-8" standalone="no"?>
<svg
   xmlns:dc="http://purl.org/dc/elements/1.1/"
   xmlns:cc="http://creativecommons.org/ns#"
   xmlns:rdf="http://www.w3.org/1999/02/22-rdf-syntax-ns#"
   xmlns:svg="http://www.w3.org/2000/svg"
   xmlns="http://www.w3.org/2000/svg"
   version="1.1"
   id="svg2"
   height="576"
   width="1920">
  <defs
     id="defs4" />
  <metadata
     id="metadata7">
    <rdf:RDF>
      <cc:Work
         rdf:about="">
        <dc:format>image/svg+xml</dc:format>
        <dc:type
           rdf:resource="http://purl.org/dc/dcmitype/StillImage" />
        <dc:title></dc:title>
      </cc:Work>
    </rdf:RDF>
  </metadata>
  <g
     transform="translate(588.10193,-396.16043)"
     id="layer1">
    <path
       id="rect3081"
       transform="translate(-588.10193,398.65225)"
       d="M 0.6875,0.5 C 0.59114808,0.5 0.5,0.59114808 0.5,0.6875 l 0,572.125 C 0.5,572.9089 0.5911481,573 0.6875,573 l 1918.9375,0 c 0.096,0 0.1562,-0.0911 0.1562,-0.1875 l 0,-572.125 c 0,-0.0963519 -0.06,-0.1875 -0.1562,-0.1875 L 0.6875,0.5 Z m 323.65625,92 c 80.7098,0 146.125,65.4152 146.125,146.125 0,46.1434 -21.37823,87.27957 -54.78125,114.0625 -0.0224,0.018 -0.0401,0.0446 -0.0625,0.0625 -2.39578,1.9294 -5.44982,3.56565 -8.5,3.65625 -6.67379,0 -12.0625,-5.68002 -12.0625,-12.6875 0.083,-5.46138 3.1686,-9.39568 8.3125,-13.21875 25.81489,-22.22289 42.15625,-55.13752 42.15625,-91.875 0,-66.93009 -54.25741,-121.1875 -121.1875,-121.1875 -66.93008,0 -121.1875,54.25741 -121.1875,121.1875 0,36.73748 16.34136,69.65211 42.15625,91.875 -0.0112,0.0298 -0.02,0.0639 -0.0312,0.0937 4.90548,4.35579 6.96639,8.33007 6.78125,12.71875 -0.30748,7.28886 -5.39966,12.35216 -13.21875,11.15625 -4.7286,-0.72323 -7.98541,-3.7555 -11.6875,-6.75 -30.01937,-26.76689 -48.9688,-65.71287 -48.9688,-109.0937 0,-80.7098 65.44646,-146.125 146.15625,-146.125 z m 591.34375,24.1875 56.78125,0 0,127.15625 0.8125,0 c 16.51456,-21.88171 38.19485,-32.81227 65.03125,-32.8125 31.3777,2.3e-4 54.9857,11.35506 70.8125,34.0625 13.762,19.81776 20.6248,46.25208 20.625,79.28125 -2e-4,32.89177 -6.863,59.37597 -20.625,79.46875 -15.9644,23.39577 -39.5725,35.09375 -70.8125,35.09375 -29.4513,0 -51.68679,-10.61869 -66.6875,-31.8125 l -0.8125,0 0,26.65625 -55.125,0 0,-317.09375 z m 776.5937,5.5625 56.7813,0 0,54.09375 -56.7813,0 0,-54.09375 z m -992.5312,16.3125 66.875,0 115.8125,295.21875 -65.4375,0 -25.375,-67.71875 -119.75,0 -25.78125,67.71875 -61.3125,0 L 699.75,138.5625 Z m -375.40625,3.5 c 53.33912,0 96.59375,43.22339 96.59375,96.5625 0,27.49638 -11.52248,52.31473 -29.96875,69.90625 -1.93834,1.79868 -4.95155,2.87352 -8.28125,3.15625 -6.59037,0 -11.9375,-5.46154 -11.9375,-12.21875 0,-4.28707 2.03043,-7.34172 5.40625,-10.25 0.01,-0.0101 0.0213,-0.0211 0.0312,-0.0312 12.75258,-13.04878 20.59375,-30.87344 20.59375,-50.5625 0,-40.00394 -32.43356,-72.4375 -72.4375,-72.4375 -40.00394,0 -72.40625,32.43356 -72.40625,72.4375 0,20.00937 8.10262,38.08748 21.21875,51.1875 2.85429,2.91099 4.991,5.80109 5,9.78125 0.0149,6.75719 -5.54481,12.62794 -12.375,12.25 -4.31087,-0.23854 -7.91921,-3.04254 -10.53125,-5.8125 -16.96818,-17.40598 -27.46875,-41.17831 -27.46875,-67.40625 0,-53.33911 43.22339,-96.5625 96.5625,-96.5625 z m 0,48.5 c 26.55455,0 48.09375,21.50795 48.09375,48.0625 0,26.55455 -21.5392,48.09375 -48.09375,48.09375 -26.55455,0 -48.0625,-21.5392 -48.0625,-48.09375 0,-26.55455 21.50795,-48.0625 48.0625,-48.0625 z m 407.1875,7.25 -42.71875,121.8125 86.28125,0 -42.71875,-121.8125 -0.84375,0 z m 542.53125,13.21875 c 33.0292,2.3e-4 60.1185,10.24451 81.3125,30.75 21.8817,21.19398 32.8429,49.42512 32.8438,84.65625 -9e-4,32.34127 -10.0637,58.87536 -30.1563,79.65625 -20.9188,21.88193 -48.9065,32.84375 -84,32.84375 -34.9561,0 -62.894,-10.96182 -83.8125,-32.84375 -19.9552,-20.78089 -29.9375,-47.31498 -29.9375,-79.65625 0,-35.23113 10.8807,-63.46227 32.625,-84.65625 21.0561,-20.50549 48.0956,-30.74977 81.125,-30.75 z m 284.6563,0 c 24.6336,2.3e-4 43.4378,8.05467 56.375,24.15625 11.697,14.86337 17.531,35.22095 17.5312,61.09375 l 0,137.5 -56.5625,0 0,-116.21875 c -2e-4,-19.12934 -1.5849,-32.9174 -4.75,-41.3125 -5.3674,-14.17491 -16.0859,-21.24983 -32.1875,-21.25 -18.1662,1.7e-4 -31.6117,8.52878 -40.2812,25.59375 -6.3313,12.66138 -9.4689,28.21501 -9.4688,46.65625 l 0,106.53125 -56.7812,0 0,-217.8125 53.6874,0 0,29.75 1.0313,0 c 16.3769,-23.12031 40.1654,-34.68727 71.4063,-34.6875 z m 133.5624,4.9375 56.7813,0 0,217.8125 -56.7813,0 0,-217.8125 z M 1023.6562,255 c -16.7898,1.7e-4 -29.81062,7.71149 -39.0312,23.125 -7.84455,13.07424 -11.75009,28.49688 -11.75,46.25 -9e-5,18.30384 3.56231,33.90735 10.71875,46.84375 8.94534,15.82659 21.96595,23.75004 39.03125,23.75 16.9274,4e-5 29.5729,-8.05442 37.9688,-24.15625 6.6049,-12.66117 9.906,-28.13366 9.9062,-46.4375 -2e-4,-18.02837 -3.2194,-33.23886 -9.6875,-45.625 -8.2575,-15.82637 -20.6418,-23.74983 -37.1563,-23.75 z m 250.4063,0 c -17.3405,1.7e-4 -31.048,6.68207 -41.0937,20.03125 -9.0838,12.11089 -13.6257,26.97825 -13.625,44.59375 -7e-4,50.23214 18.2487,75.34379 54.7187,75.34375 36.6073,4e-5 54.9055,-25.11161 54.9063,-75.34375 -8e-4,-18.02837 -4.5426,-32.97684 -13.625,-44.8125 -9.9096,-13.21155 -23.6658,-19.81233 -41.2813,-19.8125 z m -949.71875,57.3125 c 26.55454,0 48.09375,21.53921 48.09375,48.09375 0,0.0512 1.6e-4,0.10515 0,0.15625 l 0,72.71875 c 2.4e-4,0.0614 0,0.0947 0,0.15625 0,26.55454 -21.53921,48.09375 -48.09375,48.09375 -26.55454,0 -48.0625,-21.53921 -48.0625,-48.09375 0,-0.0512 -1.5e-4,-0.0739 0,-0.125 -0.002,-0.0107 0,-0.0202 0,-0.0312 l 0,-72.71875 c -1.5e-4,-0.0512 0,-0.10515 0,-0.15625 0,-26.55454 21.50796,-48.09375 48.0625,-48.09375 z"
       style="color:#000000;display:inline;overflow:visible;visibility:visible;opacity:1;fill:#ffffff;fill-opacity:1;fill-rule:nonzero;stroke:none;stroke-width:1.0194217;stroke-linecap:round;stroke-linejoin:round;stroke-miterlimit:4;stroke-dasharray:none;stroke-dashoffset:0;stroke-opacity:1;marker:none;enable-background:accumulate" />
  </g>
</svg>
