<?xml version="1.0" encoding="UTF-8" standalone="no"?>
<!-- Created with Inkscape (http://www.inkscape.org/) -->

<svg
   xmlns:dc="http://purl.org/dc/elements/1.1/"
   xmlns:cc="http://creativecommons.org/ns#"
   xmlns:rdf="http://www.w3.org/1999/02/22-rdf-syntax-ns#"
   xmlns:svg="http://www.w3.org/2000/svg"
   xmlns="http://www.w3.org/2000/svg"
   xmlns:xlink="http://www.w3.org/1999/xlink"
   xmlns:sodipodi="http://sodipodi.sourceforge.net/DTD/sodipodi-0.dtd"
   xmlns:inkscape="http://www.inkscape.org/namespaces/inkscape"
   version="1.1"
   width="192.6133"
   height="192.61479"
   id="svg2816"
   xml:space="preserve"
   inkscape:version="0.48.2 r9819"
   sodipodi:docname="flattr_inversa.svg"><metadata
     id="metadata35"><rdf:RDF><cc:Work
         rdf:about=""><dc:format>image/svg+xml</dc:format><dc:type
           rdf:resource="http://purl.org/dc/dcmitype/StillImage" /><dc:title>Flattr-Logo</dc:title></cc:Work></rdf:RDF></metadata><sodipodi:namedview
     pagecolor="#aaffff"
     bordercolor="#666666"
     borderopacity="1"
     objecttolerance="10"
     gridtolerance="10"
     guidetolerance="10"
     inkscape:pageopacity="0.39215686"
     inkscape:pageshadow="2"
     inkscape:window-width="1600"
     inkscape:window-height="848"
     id="namedview33"
     showgrid="false"
     inkscape:zoom="1.7303319"
     inkscape:cx="21.119478"
     inkscape:cy="67.549497"
     inkscape:window-x="-8"
     inkscape:window-y="-8"
     inkscape:window-maximized="1"
     inkscape:current-layer="svg2816"
     fit-margin-top="0"
     fit-margin-left="0"
     fit-margin-right="0"
     fit-margin-bottom="0" /><title
     id="title2901">Flattr-Logo</title><defs
     id="defs2820"><linearGradient
       x1="0"
       y1="0"
       x2="1"
       y2="0"
       id="linearGradient2840"
       gradientUnits="userSpaceOnUse"
       gradientTransform="matrix(0,134.75244,134.75244,0,150.74951,247.73047)"
       spreadMethod="pad"><stop
         id="stop2842"
         style="stop-color:#6a6a6a;stop-opacity:1;"
         offset="0" /><stop
         id="stop2844"
         style="stop-color:#8c8c8c;stop-opacity:1;"
         offset="1" /></linearGradient><linearGradient
       x1="0"
       y1="0"
       x2="1"
       y2="0"
       id="linearGradient2860"
       gradientUnits="userSpaceOnUse"
       gradientTransform="matrix(0,-134.75195,-134.75195,0,160.87451,372.12109)"
       spreadMethod="pad"><stop
         id="stop2862"
         style="stop-color:#878787;stop-opacity:1;"
         offset="0" /><stop
         id="stop2864"
         style="stop-color:#646464;stop-opacity:1;"
         offset="1" /></linearGradient><clipPath
       id="clipPath2872"><path
         d="m 0,595.276 841.89,0 L 841.89,0 0,0 0,595.276 z"
         id="path2874"
         inkscape:connector-curvature="0" /></clipPath><linearGradient
       inkscape:collect="always"
       xlink:href="#linearGradient2840"
       id="linearGradient3035"
       gradientUnits="userSpaceOnUse"
       gradientTransform="matrix(0,134.75244,134.75244,0,150.74951,247.73047)"
       spreadMethod="pad"
       x1="0"
       y1="0"
       x2="1"
       y2="0" /><linearGradient
       inkscape:collect="always"
       xlink:href="#linearGradient2860"
       id="linearGradient3037"
       gradientUnits="userSpaceOnUse"
       gradientTransform="matrix(0,-134.75195,-134.75195,0,160.87451,372.12109)"
       spreadMethod="pad"
       x1="0"
       y1="0"
       x2="1"
       y2="0" /><linearGradient
       inkscape:collect="always"
       xlink:href="#linearGradient2860"
       id="linearGradient3006"
       gradientUnits="userSpaceOnUse"
       gradientTransform="matrix(0,-134.75195,-134.75195,0,160.87451,372.12109)"
       spreadMethod="pad"
       x1="0"
       y1="0"
       x2="1"
       y2="0" /><linearGradient
       inkscape:collect="always"
       xlink:href="#linearGradient2860"
       id="linearGradient3011"
       gradientUnits="userSpaceOnUse"
       gradientTransform="matrix(0,-134.75195,-134.75195,0,160.87451,372.12109)"
       spreadMethod="pad"
       x1="0"
       y1="0"
       x2="1"
       y2="0" /><linearGradient
       inkscape:collect="always"
       xlink:href="#linearGradient2860"
       id="linearGradient3015"
       gradientUnits="userSpaceOnUse"
       gradientTransform="matrix(0,-134.75195,-134.75195,0,160.87451,372.12109)"
       spreadMethod="pad"
       x1="0"
       y1="0"
       x2="1"
       y2="0" /><linearGradient
       inkscape:collect="always"
       xlink:href="#linearGradient2840"
       id="linearGradient3792"
       gradientUnits="userSpaceOnUse"
       gradientTransform="matrix(0,134.75244,134.75244,0,150.74951,247.73047)"
       spreadMethod="pad"
       x1="0"
       y1="0"
       x2="1"
       y2="0" /><linearGradient
       inkscape:collect="always"
       xlink:href="#linearGradient2840"
       id="linearGradient3797"
       gradientUnits="userSpaceOnUse"
       gradientTransform="matrix(0,134.75244,134.75244,0,150.74951,247.73047)"
       spreadMethod="pad"
       x1="0"
       y1="0"
       x2="1"
       y2="0" /><linearGradient
       inkscape:collect="always"
       xlink:href="#linearGradient2840"
       id="linearGradient3801"
       gradientUnits="userSpaceOnUse"
       gradientTransform="matrix(0,134.75244,134.75244,0,150.74951,247.73047)"
       spreadMethod="pad"
       x1="0"
       y1="0"
       x2="1"
       y2="0" /></defs><path
     style="opacity:1;color:#000000;fill:#ffffff;stroke:none;stroke-width:1;marker:none;visibility:visible;display:inline;overflow:visible;enable-background:accumulate"
     d="M 0 0 L 0 192.625 L 192.625 192.625 L 192.625 0 L 0 0 z M 78.34375 32.5625 L 116.59375 32.5625 L 151.0625 32.5625 L 99.6875 83.96875 C 99.199811 84.450288 98.755263 84.719594 98.25 84.71875 C 97.357221 84.716993 96.575729 84.116033 96.34375 83.28125 C 96.29542 83.109021 96.28125 82.781796 96.28125 82.59375 L 96.28125 61.96875 C 90.741804 61.96875 82.029968 61.680155 77.84375 62.5 C 65.860657 64.428789 62.28125 72.99936 62.28125 86.5 L 62.28125 121.25 L 32.65625 150.96875 L 32.65625 105.34375 L 32.65625 82.59375 C 32.65625 50.005572 48.088571 32.5625 78.34375 32.5625 z M 159.96875 41.65625 L 159.96875 87.25 L 159.96875 110.03125 C 159.96875 142.61855 144.50518 160.0625 114.25 160.0625 L 76.03125 160.0625 L 41.5625 160.0625 L 92.90625 108.625 C 93.393939 108.14434 93.869737 107.874 94.375 107.875 C 95.268658 107.87675 96.018016 108.50809 96.25 109.34375 C 96.29833 109.51598 96.34375 109.84408 96.34375 110.03125 L 96.34375 130.65625 C 101.8832 130.65625 110.59504 130.94396 114.78125 130.125 C 126.76347 128.19621 130.3125 119.59439 130.3125 106.09375 L 130.3125 71.375 L 159.96875 41.65625 z "
     id="rect2994" /></svg>