<?xml version="1.0" encoding="UTF-8" standalone="no"?>
<!-- Created with Inkscape (http://www.inkscape.org/) -->

<svg
   xmlns:dc="http://purl.org/dc/elements/1.1/"
   xmlns:cc="http://creativecommons.org/ns#"
   xmlns:rdf="http://www.w3.org/1999/02/22-rdf-syntax-ns#"
   xmlns:svg="http://www.w3.org/2000/svg"
   xmlns="http://www.w3.org/2000/svg"
   xmlns:xlink="http://www.w3.org/1999/xlink"
   xmlns:sodipodi="http://sodipodi.sourceforge.net/DTD/sodipodi-0.dtd"
   xmlns:inkscape="http://www.inkscape.org/namespaces/inkscape"
   version="1.1"
   width="192.6133"
   height="192.61479"
   id="svg2816"
   xml:space="preserve"
   inkscape:version="0.48.2 r9819"
   sodipodi:docname="flattr_blanka.svg"><metadata
     id="metadata35"><rdf:RDF><cc:Work
         rdf:about=""><dc:format>image/svg+xml</dc:format><dc:type
           rdf:resource="http://purl.org/dc/dcmitype/StillImage" /><dc:title>Flattr-Logo</dc:title></cc:Work></rdf:RDF></metadata><sodipodi:namedview
     pagecolor="#aaffff"
     bordercolor="#666666"
     borderopacity="1"
     objecttolerance="10"
     gridtolerance="10"
     guidetolerance="10"
     inkscape:pageopacity="0.39215686"
     inkscape:pageshadow="2"
     inkscape:window-width="1600"
     inkscape:window-height="848"
     id="namedview33"
     showgrid="false"
     inkscape:zoom="1.7303319"
     inkscape:cx="21.119478"
     inkscape:cy="67.549497"
     inkscape:window-x="-8"
     inkscape:window-y="-8"
     inkscape:window-maximized="1"
     inkscape:current-layer="svg2816"
     fit-margin-top="0"
     fit-margin-left="0"
     fit-margin-right="0"
     fit-margin-bottom="0" /><title
     id="title2901">Flattr-Logo</title><defs
     id="defs2820"><linearGradient
       x1="0"
       y1="0"
       x2="1"
       y2="0"
       id="linearGradient2840"
       gradientUnits="userSpaceOnUse"
       gradientTransform="matrix(0,134.75244,134.75244,0,150.74951,247.73047)"
       spreadMethod="pad"><stop
         id="stop2842"
         style="stop-color:#6a6a6a;stop-opacity:1;"
         offset="0" /><stop
         id="stop2844"
         style="stop-color:#8c8c8c;stop-opacity:1;"
         offset="1" /></linearGradient><linearGradient
       x1="0"
       y1="0"
       x2="1"
       y2="0"
       id="linearGradient2860"
       gradientUnits="userSpaceOnUse"
       gradientTransform="matrix(0,-134.75195,-134.75195,0,160.87451,372.12109)"
       spreadMethod="pad"><stop
         id="stop2862"
         style="stop-color:#878787;stop-opacity:1;"
         offset="0" /><stop
         id="stop2864"
         style="stop-color:#646464;stop-opacity:1;"
         offset="1" /></linearGradient><clipPath
       id="clipPath2872"><path
         d="m 0,595.276 841.89,0 L 841.89,0 0,0 0,595.276 z"
         id="path2874"
         inkscape:connector-curvature="0" /></clipPath><linearGradient
       inkscape:collect="always"
       xlink:href="#linearGradient2840"
       id="linearGradient3035"
       gradientUnits="userSpaceOnUse"
       gradientTransform="matrix(0,134.75244,134.75244,0,150.74951,247.73047)"
       spreadMethod="pad"
       x1="0"
       y1="0"
       x2="1"
       y2="0" /><linearGradient
       inkscape:collect="always"
       xlink:href="#linearGradient2860"
       id="linearGradient3037"
       gradientUnits="userSpaceOnUse"
       gradientTransform="matrix(0,-134.75195,-134.75195,0,160.87451,372.12109)"
       spreadMethod="pad"
       x1="0"
       y1="0"
       x2="1"
       y2="0" /><linearGradient
       inkscape:collect="always"
       xlink:href="#linearGradient2860"
       id="linearGradient3006"
       gradientUnits="userSpaceOnUse"
       gradientTransform="matrix(0,-134.75195,-134.75195,0,160.87451,372.12109)"
       spreadMethod="pad"
       x1="0"
       y1="0"
       x2="1"
       y2="0" /><linearGradient
       inkscape:collect="always"
       xlink:href="#linearGradient2860"
       id="linearGradient3011"
       gradientUnits="userSpaceOnUse"
       gradientTransform="matrix(0,-134.75195,-134.75195,0,160.87451,372.12109)"
       spreadMethod="pad"
       x1="0"
       y1="0"
       x2="1"
       y2="0" /><linearGradient
       inkscape:collect="always"
       xlink:href="#linearGradient2860"
       id="linearGradient3015"
       gradientUnits="userSpaceOnUse"
       gradientTransform="matrix(0,-134.75195,-134.75195,0,160.87451,372.12109)"
       spreadMethod="pad"
       x1="0"
       y1="0"
       x2="1"
       y2="0" /><linearGradient
       inkscape:collect="always"
       xlink:href="#linearGradient2840"
       id="linearGradient3792"
       gradientUnits="userSpaceOnUse"
       gradientTransform="matrix(0,134.75244,134.75244,0,150.74951,247.73047)"
       spreadMethod="pad"
       x1="0"
       y1="0"
       x2="1"
       y2="0" /><linearGradient
       inkscape:collect="always"
       xlink:href="#linearGradient2840"
       id="linearGradient3797"
       gradientUnits="userSpaceOnUse"
       gradientTransform="matrix(0,134.75244,134.75244,0,150.74951,247.73047)"
       spreadMethod="pad"
       x1="0"
       y1="0"
       x2="1"
       y2="0" /><linearGradient
       inkscape:collect="always"
       xlink:href="#linearGradient2840"
       id="linearGradient3801"
       gradientUnits="userSpaceOnUse"
       gradientTransform="matrix(0,134.75244,134.75244,0,150.74951,247.73047)"
       spreadMethod="pad"
       x1="0"
       y1="0"
       x2="1"
       y2="0" /></defs><rect
     style="opacity:0.90740739;color:#000000;fill:none;stroke:none;stroke-width:1;marker:none;visibility:visible;display:inline;overflow:visible;enable-background:accumulate"
     id="rect2994"
     width="192.6133"
     height="192.61479"
     x="0"
     y="0" /><g
     id="g3002"
     transform="matrix(0.8,0,0,0.8,19.261329,19.26148)"><g
       transform="matrix(0.87871914,0,0,0.87871914,8.6584086,8.5259753)"
       id="g3011"><path
         inkscape:connector-curvature="0"
         style="fill:#ffffff;stroke:none"
         id="path2846"
         d="m 74.201704,9.20017 c -43.03875,0 -65.005,24.82875 -65.005,71.18625 l 0,0 0,32.3825 0,64.87375 42.16,-42.27125 0,-49.40375 c 0,-19.205 5.08125,-31.42625 22.1275,-34.17 l 0,0 c 5.955,-1.16625 18.34875,-0.7575 26.22875,-0.7575 l 0,0 0,29.33375 c 0,0.2675 0.03625,0.745 0.105,0.99 l 0,0 c 0.329996,1.1875 1.402496,2.0575 2.672496,2.06 l 0,0 c 0.71875,0.0012 1.39125,-0.3725 2.085,-1.0575 l 0,0 73.0625,-73.155 -49.0425,-0.01125 -54.393746,0 z" /><path
         inkscape:connector-curvature="0"
         style="fill:#ffffff;stroke:none"
         id="path2866"
         d="m 148.1342,64.42392 0,49.4025 c 0,19.205 -5.0825,31.4275 -22.1275,34.17125 l 0,0 c -5.955,1.165 -18.34875,0.75625 -26.228746,0.75625 l 0,0 0,-29.3325 c 0,-0.26625 -0.03625,-0.745 -0.105,-0.99 l 0,0 c -0.33,-1.18875 -1.40125,-2.0575 -2.6725,-2.06 l 0,0 c -0.71875,-0.002 -1.39125,0.3725 -2.085,1.05625 l 0,0 -73.0625,73.155 49.0425,0.0112 54.393746,0 c 43.03875,0 65.005,-24.82875 65.005,-71.185 l 0,0 0,-32.38375 0,-64.8725 -42.16,42.27125 z" /></g></g></svg>