<?xml version="1.0" encoding="UTF-8" standalone="no"?>
<svg
   xmlns:dc="http://purl.org/dc/elements/1.1/"
   xmlns:cc="http://creativecommons.org/ns#"
   xmlns:rdf="http://www.w3.org/1999/02/22-rdf-syntax-ns#"
   xmlns:svg="http://www.w3.org/2000/svg"
   xmlns="http://www.w3.org/2000/svg"
   xmlns:sodipodi="http://sodipodi.sourceforge.net/DTD/sodipodi-0.dtd"
   xmlns:inkscape="http://www.inkscape.org/namespaces/inkscape"
   id="RSSicon"
   viewBox="0 0 8 8"
   width="256"
   height="256"
   version="1.1"
   inkscape:version="0.48.2 r9819"
   sodipodi:docname="RSS_blanka.svg">
  <metadata
     id="metadata19">
    <rdf:RDF>
      <cc:Work
         rdf:about="">
        <dc:format>image/svg+xml</dc:format>
        <dc:type
           rdf:resource="http://purl.org/dc/dcmitype/StillImage" />
        <dc:title>RSS feed icon</dc:title>
      </cc:Work>
    </rdf:RDF>
  </metadata>
  <defs
     id="defs17" />
  <sodipodi:namedview
     pagecolor="#a2ffff"
     bordercolor="#666666"
     borderopacity="1"
     objecttolerance="10"
     gridtolerance="10"
     guidetolerance="10"
     inkscape:pageopacity="0.38431373"
     inkscape:pageshadow="2"
     inkscape:window-width="1600"
     inkscape:window-height="848"
     id="namedview15"
     showgrid="false"
     showguides="true"
     inkscape:guide-bbox="true"
     inkscape:snap-bbox="true"
     inkscape:bbox-nodes="true"
     inkscape:bbox-paths="true"
     inkscape:snap-bbox-edge-midpoints="true"
     inkscape:zoom="1.972165"
     inkscape:cx="127.09477"
     inkscape:cy="151.18743"
     inkscape:window-x="-8"
     inkscape:window-y="-8"
     inkscape:window-maximized="1"
     inkscape:current-layer="RSSicon">
    <sodipodi:guide
       orientation="0,1"
       position="185.72549,256"
       id="guide2996" />
    <sodipodi:guide
       orientation="1,0"
       position="0,156.32493"
       id="guide2998" />
    <sodipodi:guide
       orientation="0,1"
       position="128,0"
       id="guide3000" />
    <sodipodi:guide
       orientation="1,0"
       position="256,164.21289"
       id="guide3002" />
  </sodipodi:namedview>
  <title
     id="title3">RSS feed icon</title>
  <style
     type="text/css"
     id="style5">
    .button {stroke: none; fill: orange;}
    .symbol {stroke: none; fill: white;}
  </style>
  <path
     style="opacity:1;color:#000000;fill:#ffffff;fill-opacity:1;fill-rule:nonzero;stroke:none;stroke-width:1;marker:none;visibility:visible;display:inline;overflow:visible;enable-background:accumulate"
     d="M 1.5 0 C 0.669 0 -2.0238441e-018 0.669 0 1.5 L 0 254.5 C 0 255.331 0.669 256 1.5 256 L 254.5 256 C 255.331 256 256 255.331 256 254.5 L 256 1.5 C 256 0.669 255.331 -2.0238441e-018 254.5 0 L 1.5 0 z M 51.1875 51.1875 A 153.6 153.6 0 0 1 204.8125 204.8125 L 179.1875 204.8125 A 128 128 0 0 0 51.1875 76.8125 L 51.1875 51.1875 z M 51.1875 102.40625 A 102.4 102.4 0 0 1 153.59375 204.8125 L 128 204.8125 A 76.8 76.8 0 0 0 51.1875 128 L 51.1875 102.40625 z M 76.8125 153.59375 C 90.95099 153.59375 102.40625 165.04901 102.40625 179.1875 C 102.40625 193.32599 90.95099 204.8125 76.8125 204.8125 C 62.67401 204.8125 51.1875 193.32599 51.1875 179.1875 C 51.1875 165.04901 62.67401 153.59375 76.8125 153.59375 z "
     transform="scale(0.03125,0.03125)"
     id="rect3004" />
</svg>
