<?xml version="1.0" encoding="UTF-8" standalone="no"?>
<!-- Created with Inkscape (http://www.inkscape.org/) -->

<svg
   xmlns:dc="http://purl.org/dc/elements/1.1/"
   xmlns:cc="http://creativecommons.org/ns#"
   xmlns:rdf="http://www.w3.org/1999/02/22-rdf-syntax-ns#"
   xmlns:svg="http://www.w3.org/2000/svg"
   xmlns="http://www.w3.org/2000/svg"
   xmlns:sodipodi="http://sodipodi.sourceforge.net/DTD/sodipodi-0.dtd"
   xmlns:inkscape="http://www.inkscape.org/namespaces/inkscape"
   width="180"
   height="180"
   id="svg2"
   version="1.1"
   inkscape:version="0.48.2 r9819"
   sodipodi:docname="TW_blanka.svg">
  <defs
     id="defs4" />
  <sodipodi:namedview
     id="base"
     pagecolor="#7fffff"
     bordercolor="#666666"
     borderopacity="1.0"
     inkscape:pageopacity="0.36470588"
     inkscape:pageshadow="2"
     inkscape:zoom="0.93001428"
     inkscape:cx="109.92661"
     inkscape:cy="152.46288"
     inkscape:document-units="px"
     inkscape:current-layer="layer1"
     showgrid="false"
     inkscape:window-width="1600"
     inkscape:window-height="848"
     inkscape:window-x="-8"
     inkscape:window-y="-8"
     inkscape:window-maximized="1"
     fit-margin-top="0"
     fit-margin-left="0"
     fit-margin-right="0"
     fit-margin-bottom="0" />
  <metadata
     id="metadata7">
    <rdf:RDF>
      <cc:Work
         rdf:about="">
        <dc:format>image/svg+xml</dc:format>
        <dc:type
           rdf:resource="http://purl.org/dc/dcmitype/StillImage" />
      </cc:Work>
    </rdf:RDF>
  </metadata>
  <g
     inkscape:label="Layer 1"
     inkscape:groupmode="layer"
     id="layer1"
     transform="translate(-282.32053,-355.68573)">
    <rect
       style="opacity:0.90740739000000004;color:#000000;fill:none;fill-opacity:1;fill-rule:nonzero;stroke:none;stroke-width:1;marker:none;visibility:visible;display:inline;overflow:visible;enable-background:accumulate"
       id="rect2983"
       width="179.13599"
       height="179.13599"
       x="282.75253"
       y="356.11774"
       rx="0.049084708" />
    <path
       style="fill:#ffffff"
       inkscape:connector-curvature="0"
       id="path5"
       d="m 438.51233,404.62855 c -4.87041,2.1605 -10.10553,3.62003 -15.59879,4.27665 5.60712,-3.36124 9.91422,-8.68372 11.94168,-15.02622 -5.24836,3.113 -11.06066,5.37279 -17.24762,6.59073 -4.9538,-5.27881 -12.01252,-8.57649 -19.82448,-8.57649 -14.99909,0 -27.16053,12.16011 -27.16053,27.15921 0,2.12872 0.24028,4.20186 0.70362,6.1896 -22.57277,-1.13254 -42.58523,-11.94566 -55.98115,-28.3778 -2.3379,4.01123 -3.67762,8.67643 -3.67762,13.65407 0,9.42308 4.79494,17.73612 12.08266,22.60652 -4.45206,-0.14099 -8.64002,-1.36289 -12.30176,-3.39696 -0.003,0.11317 -0.003,0.22702 -0.003,0.34154 0,13.15895 9.36218,24.13556 21.78707,26.63232 -2.27899,0.62087 -4.67845,0.95251 -7.15535,0.95251 -1.75012,0 -3.45124,-0.17079 -5.11002,-0.48718 3.45655,10.78994 13.4866,18.64229 25.37202,18.86072 -9.29533,7.28508 -21.006,11.62728 -33.7314,11.62728 -2.19227,0 -4.3541,-0.12908 -6.47886,-0.37995 12.01979,7.70673 26.29606,12.20314 41.63405,12.20314 49.95703,0 77.27641,-41.38516 77.27641,-77.27707 0,-1.17756 -0.0265,-2.34849 -0.0787,-3.51412 5.30594,-3.82854 9.91025,-8.61158 13.55147,-14.0585 z" />
  </g>
</svg>
