<?xml version="1.0" encoding="UTF-8" standalone="no"?>
<!-- Created with Inkscape (http://www.inkscape.org/) -->

<svg
   xmlns:dc="http://purl.org/dc/elements/1.1/"
   xmlns:cc="http://creativecommons.org/ns#"
   xmlns:rdf="http://www.w3.org/1999/02/22-rdf-syntax-ns#"
   xmlns:svg="http://www.w3.org/2000/svg"
   xmlns="http://www.w3.org/2000/svg"
   xmlns:sodipodi="http://sodipodi.sourceforge.net/DTD/sodipodi-0.dtd"
   xmlns:inkscape="http://www.inkscape.org/namespaces/inkscape"
   width="180"
   height="180"
   id="svg2"
   version="1.1"
   inkscape:version="0.48.2 r9819"
   sodipodi:docname="TW_inversa.svg">
  <defs
     id="defs4" />
  <sodipodi:namedview
     id="base"
     pagecolor="#7fffff"
     bordercolor="#666666"
     borderopacity="1.0"
     inkscape:pageopacity="0.36470588"
     inkscape:pageshadow="2"
     inkscape:zoom="0.93001428"
     inkscape:cx="109.92661"
     inkscape:cy="152.46288"
     inkscape:document-units="px"
     inkscape:current-layer="layer1"
     showgrid="false"
     inkscape:window-width="1600"
     inkscape:window-height="848"
     inkscape:window-x="-8"
     inkscape:window-y="-8"
     inkscape:window-maximized="1"
     fit-margin-top="0"
     fit-margin-left="0"
     fit-margin-right="0"
     fit-margin-bottom="0" />
  <metadata
     id="metadata7">
    <rdf:RDF>
      <cc:Work
         rdf:about="">
        <dc:format>image/svg+xml</dc:format>
        <dc:type
           rdf:resource="http://purl.org/dc/dcmitype/StillImage" />
        <dc:title></dc:title>
      </cc:Work>
    </rdf:RDF>
  </metadata>
  <g
     inkscape:label="Layer 1"
     inkscape:groupmode="layer"
     id="layer1"
     transform="translate(-282.32053,-355.68573)">
    <path
       style="opacity:1;color:#000000;fill:#ffffff;fill-opacity:1;fill-rule:nonzero;stroke:none;stroke-width:1;marker:none;visibility:visible;display:inline;overflow:visible;enable-background:accumulate"
       d="M 0.46875 0.4375 C 0.44155707 0.4375 0.4375 0.44155707 0.4375 0.46875 L 0.4375 179.53125 C 0.4375 179.55844 0.44155707 179.5625 0.46875 179.5625 L 179.53125 179.5625 C 179.55844 179.5625 179.5625 179.55844 179.5625 179.53125 L 179.5625 0.46875 C 179.5625 0.44155707 179.55844 0.4375 179.53125 0.4375 L 0.46875 0.4375 z M 115.46875 36.21875 C 123.28071 36.21875 130.32745 39.50244 135.28125 44.78125 C 141.46821 43.56331 147.28289 41.3005 152.53125 38.1875 C 150.50379 44.53 146.20087 49.85751 140.59375 53.21875 C 146.08701 52.56213 151.31709 51.098 156.1875 48.9375 C 152.54628 54.38442 147.93094 59.17146 142.625 63 C 142.6772 64.16563 142.71875 65.32244 142.71875 66.5 C 142.71875 102.39191 115.39453 143.78125 65.4375 143.78125 C 50.09951 143.78125 35.83229 139.30048 23.8125 131.59375 C 25.93726 131.84462 28.08898 131.96875 30.28125 131.96875 C 43.00665 131.96875 54.73592 127.62883 64.03125 120.34375 C 52.14583 120.12532 42.1128 112.25869 38.65625 101.46875 C 40.31503 101.78514 41.99988 101.96875 43.75 101.96875 C 46.2269 101.96875 48.62726 101.65212 50.90625 101.03125 C 38.48136 98.53449 29.125 87.53395 29.125 74.375 C 29.125 74.26048 29.122 74.14442 29.125 74.03125 C 32.78674 76.06532 36.98544 77.29651 41.4375 77.4375 C 34.14978 72.5671 29.34375 64.26683 29.34375 54.84375 C 29.34375 49.86611 30.69335 45.19873 33.03125 41.1875 C 46.42717 57.61964 66.42723 68.42996 89 69.5625 C 88.53666 67.57476 88.3125 65.50372 88.3125 63.375 C 88.3125 48.3759 100.46966 36.21875 115.46875 36.21875 z "
       transform="translate(282.32053,355.68573)"
       id="rect2983" />
  </g>
</svg>
