<?xml version="1.0" encoding="UTF-8" standalone="no"?>
<!-- Created with Inkscape (http://www.inkscape.org/) -->

<svg
   xmlns:dc="http://purl.org/dc/elements/1.1/"
   xmlns:cc="http://creativecommons.org/ns#"
   xmlns:rdf="http://www.w3.org/1999/02/22-rdf-syntax-ns#"
   xmlns:svg="http://www.w3.org/2000/svg"
   xmlns="http://www.w3.org/2000/svg"
   xmlns:sodipodi="http://sodipodi.sourceforge.net/DTD/sodipodi-0.dtd"
   xmlns:inkscape="http://www.inkscape.org/namespaces/inkscape"
   version="1.0"
   width="960"
   height="960"
   id="svg2444"
   inkscape:version="0.48.2 r9819"
   sodipodi:docname="VK_blanka.svg">
  <metadata
     id="metadata10">
    <rdf:RDF>
      <cc:Work
         rdf:about="">
        <dc:format>image/svg+xml</dc:format>
        <dc:type
           rdf:resource="http://purl.org/dc/dcmitype/StillImage" />
      </cc:Work>
    </rdf:RDF>
  </metadata>
  <sodipodi:namedview
     pagecolor="#8affff"
     bordercolor="#666666"
     borderopacity="1"
     objecttolerance="10"
     gridtolerance="10"
     guidetolerance="10"
     inkscape:pageopacity="0.41568627"
     inkscape:pageshadow="2"
     inkscape:window-width="1600"
     inkscape:window-height="848"
     id="namedview8"
     showgrid="false"
     showguides="true"
     inkscape:guide-bbox="true"
     inkscape:snap-bbox="true"
     inkscape:object-paths="true"
     inkscape:snap-intersection-paths="true"
     inkscape:object-nodes="true"
     inkscape:zoom="0.34863281"
     inkscape:cx="1327.3184"
     inkscape:cy="453.84817"
     inkscape:window-x="-8"
     inkscape:window-y="-8"
     inkscape:window-maximized="1"
     inkscape:current-layer="layer1"
     fit-margin-top="0"
     fit-margin-left="0"
     fit-margin-right="0"
     fit-margin-bottom="0">
    <sodipodi:guide
       orientation="0,1"
       position="759.66386,960"
       id="guide2987" />
    <sodipodi:guide
       orientation="0,1"
       position="745.32212,3.1444092e-005"
       id="guide2989" />
    <sodipodi:guide
       orientation="1,0"
       position="-1.6293945e-006,533.06444"
       id="guide2991" />
    <sodipodi:guide
       orientation="1,0"
       position="959.99998,512.986"
       id="guide2993" />
  </sodipodi:namedview>
  <defs
     id="defs2446" />
  <g
     id="layer1"
     transform="translate(-32.000008,-32.000011)">
    <rect
       style="opacity:0.90740739;color:#000000;fill:none;stroke:none;stroke-width:1;marker:none;visibility:visible;display:inline;overflow:visible;enable-background:accumulate"
       id="rect2997"
       width="960"
       height="960"
       x="32.000008"
       y="32.000011"
       rx="0.049084708" />
    <path
       inkscape:connector-curvature="0"
       style="fill:#ffffff;fill-opacity:1;fill-rule:evenodd;stroke:none"
       id="path2442"
       d="m 503.97668,703.21016 39.09592,0 c 0,0 11.80664,-1.30135 17.84353,-7.79661 5.54862,-5.97011 5.37126,-17.17328 5.37126,-17.17328 0,0 -0.76469,-52.45957 23.57871,-60.18478 24.00712,-7.61465 54.82734,50.69986 87.4925,73.12463 24.70272,16.96367 43.47448,13.25078 43.47448,13.25078 l 87.352,-1.22074 c 0,0 45.69253,-2.81922 24.02555,-38.74582 -1.77353,-2.93439 -12.62199,-26.57528 -64.95027,-75.14691 -54.77668,-50.83807 -47.43381,-42.61305 18.54372,-130.55009 40.18077,-53.55362 56.24157,-86.24642 51.22271,-100.24808 -4.78162,-13.34062 -34.33734,-9.81659 -34.33734,-9.81659 l -98.35018,0.60807 c 0,0 -7.2968,-0.99272 -12.70031,2.24109 -5.28604,3.1624 -8.67876,10.55133 -8.67876,10.55133 0,0 -15.57251,41.43837 -36.32508,76.68552 -43.79463,74.36378 -61.30879,78.30009 -68.4674,73.6751 -16.65504,-10.76324 -12.493,-43.23032 -12.493,-66.3023 0,-72.06973 10.93138,-102.11836 -21.28694,-109.89654 -10.68954,-2.57967 -18.56446,-4.28641 -45.90674,-4.5651 -35.09512,-0.35701 -64.79135,0.10824 -81.60992,8.34708 -11.18934,5.47952 -19.82205,17.68692 -14.56135,18.38942 6.50217,0.86603 21.22015,3.97317 29.02367,14.5913 10.08147,13.71605 9.72907,44.50633 9.72907,44.50633 0,0 5.79275,84.83682 -13.52489,95.37204 -13.25538,7.2277 -31.4421,-7.52713 -70.48736,-74.99489 -20.0017,-34.55846 -35.10894,-72.76301 -35.10894,-72.76301 0,0 -2.90905,-7.13787 -8.10525,-10.95903 -6.30178,-4.6296 -15.10723,-6.09678 -15.10723,-6.09678 l -93.46259,0.61037 c 0,0 -14.02702,0.39156 -19.18177,6.49295 -4.58584,5.43114 -0.36619,16.65043 -0.36619,16.65043 0,0 73.16609,171.18459 156.01975,257.45176 75.97839,79.10395 162.23864,73.91235 162.23864,73.91235" />
  </g>
</svg>
