<?xml version="1.0" encoding="UTF-8" standalone="no"?>
<!-- Created with Inkscape (http://www.inkscape.org/) -->

<svg
   xmlns:dc="http://purl.org/dc/elements/1.1/"
   xmlns:cc="http://creativecommons.org/ns#"
   xmlns:rdf="http://www.w3.org/1999/02/22-rdf-syntax-ns#"
   xmlns:svg="http://www.w3.org/2000/svg"
   xmlns="http://www.w3.org/2000/svg"
   xmlns:sodipodi="http://sodipodi.sourceforge.net/DTD/sodipodi-0.dtd"
   xmlns:inkscape="http://www.inkscape.org/namespaces/inkscape"
   version="1.0"
   width="960"
   height="960"
   id="svg2444"
   inkscape:version="0.48.2 r9819"
   sodipodi:docname="VK_inversa.svg">
  <metadata
     id="metadata10">
    <rdf:RDF>
      <cc:Work
         rdf:about="">
        <dc:format>image/svg+xml</dc:format>
        <dc:type
           rdf:resource="http://purl.org/dc/dcmitype/StillImage" />
        <dc:title></dc:title>
      </cc:Work>
    </rdf:RDF>
  </metadata>
  <sodipodi:namedview
     pagecolor="#8affff"
     bordercolor="#666666"
     borderopacity="1"
     objecttolerance="10"
     gridtolerance="10"
     guidetolerance="10"
     inkscape:pageopacity="0.41568627"
     inkscape:pageshadow="2"
     inkscape:window-width="1600"
     inkscape:window-height="848"
     id="namedview8"
     showgrid="false"
     showguides="true"
     inkscape:guide-bbox="true"
     inkscape:snap-bbox="true"
     inkscape:object-paths="true"
     inkscape:snap-intersection-paths="true"
     inkscape:object-nodes="true"
     inkscape:zoom="0.24652062"
     inkscape:cx="803.06171"
     inkscape:cy="671.54095"
     inkscape:window-x="-8"
     inkscape:window-y="-8"
     inkscape:window-maximized="1"
     inkscape:current-layer="layer1"
     fit-margin-top="0"
     fit-margin-left="0"
     fit-margin-right="0"
     fit-margin-bottom="0">
    <sodipodi:guide
       orientation="0,1"
       position="759.66386,960"
       id="guide2987" />
    <sodipodi:guide
       orientation="0,1"
       position="745.32212,3.1444092e-005"
       id="guide2989" />
    <sodipodi:guide
       orientation="1,0"
       position="-1.6293945e-006,533.06444"
       id="guide2991" />
    <sodipodi:guide
       orientation="1,0"
       position="959.99998,512.986"
       id="guide2993" />
  </sodipodi:namedview>
  <defs
     id="defs2446" />
  <g
     id="layer1"
     transform="translate(-32.000008,-32.000011)">
    <path
       style="opacity:1;color:#000000;fill:#ffffff;stroke:none;stroke-width:1;marker:none;visibility:visible;display:inline;overflow:visible;enable-background:accumulate"
       d="M 0.0625 0 C 0.035307072 0 0 0.035307072 0 0.0625 L 0 959.9375 C 0 959.96469 0.035307072 960 0.0625 960 L 959.9375 960 C 959.96469 960 960 959.96469 960 959.9375 L 960 0.0625 C 960 0.035307072 959.96469 0 959.9375 0 L 0.0625 0 z M 447.34375 299.625 C 453.49518 299.5883 459.88842 299.62056 466.46875 299.6875 C 493.81103 299.96619 501.68546 301.67033 512.375 304.25 C 544.59332 312.02818 533.6875 342.08652 533.6875 414.15625 C 533.6875 437.22823 529.50121 469.70551 546.15625 480.46875 C 553.31486 485.09374 570.83037 481.14503 614.625 406.78125 C 635.37757 371.5341 650.96875 330.09375 650.96875 330.09375 C 650.96875 330.09375 654.33896 322.7249 659.625 319.5625 C 665.02851 316.32869 672.34375 317.3125 672.34375 317.3125 L 770.6875 316.6875 C 770.6875 316.6875 800.24963 313.19063 805.03125 326.53125 C 810.05011 340.53291 793.99327 373.22763 753.8125 426.78125 C 687.83497 514.71829 680.47332 506.47443 735.25 557.3125 C 787.57828 605.88413 798.44522 629.53436 800.21875 632.46875 C 821.88573 668.39535 776.1875 671.21875 776.1875 671.21875 L 688.84375 672.4375 C 688.84375 672.4375 670.04647 676.15117 645.34375 659.1875 C 612.67859 636.76273 581.88212 578.44785 557.875 586.0625 C 533.5316 593.78771 534.28125 646.25 534.28125 646.25 C 534.28125 646.25 534.45487 657.43614 528.90625 663.40625 C 522.86936 669.90151 511.0625 671.21875 511.0625 671.21875 L 471.96875 671.21875 C 471.96875 671.21875 385.72839 676.41645 309.75 597.3125 C 226.89634 511.04533 153.71875 339.84375 153.71875 339.84375 C 153.71875 339.84375 149.50791 328.61864 154.09375 323.1875 C 159.2485 317.08611 173.28125 316.6875 173.28125 316.6875 L 266.71875 316.09375 C 266.71875 316.09375 275.54197 317.5579 281.84375 322.1875 C 287.03995 326.00866 289.9375 333.15625 289.9375 333.15625 C 289.9375 333.15625 305.0608 371.34779 325.0625 405.90625 C 364.10776 473.37401 382.27587 488.13395 395.53125 480.90625 C 414.84889 470.37103 409.0625 385.53125 409.0625 385.53125 C 409.0625 385.53125 409.42522 354.7473 399.34375 341.03125 C 391.54023 330.41312 376.81467 327.30353 370.3125 326.4375 C 365.0518 325.735 373.68566 313.54202 384.875 308.0625 C 398.54009 301.36844 420.68757 299.78402 447.34375 299.625 z "
       transform="translate(32.000008,32.000011)"
       id="rect2997" />
  </g>
</svg>
